<?xml version="1.0" encoding="UTF-8"?>
<svg xmlns="http://www.w3.org/2000/svg" xmlns:xlink="http://www.w3.org/1999/xlink" width="0" height="0">
<symbol id="plyr-airplay" width="18px" height="18px" viewBox="0 0 18 18">
    <g>
        <path d="M16,1 L2,1 C1.447,1 1,1.447 1,2 L1,12 C1,12.553 1.447,13 2,13 L5,13 L5,11 L3,11 L3,3 L15,3 L15,11 L13,11 L13,13 L16,13 C16.553,13 17,12.553 17,12 L17,2 C17,1.447 16.553,1 16,1 L16,1 Z"></path>
        <polygon points="4 17 14 17 9 11"></polygon>
    </g>
</symbol>
<symbol id="plyr-captions-off" width="18px" height="18px" viewBox="0 0 18 18">
    <g fill-rule="evenodd" fill-opacity="0.5">
        <path d="M1,1 C0.4,1 0,1.4 0,2 L0,13 C0,13.6 0.4,14 1,14 L5.6,14 L8.3,16.7 C8.5,16.9 8.7,17 9,17 C9.3,17 9.5,16.9 9.7,16.7 L12.4,14 L17,14 C17.6,14 18,13.6 18,13 L18,2 C18,1.4 17.6,1 17,1 L1,1 Z M5.52,11.15 C7.51,11.15 8.53,9.83 8.8,8.74 L7.51,8.35 C7.32,9.01 6.73,9.8 5.52,9.8 C4.38,9.8 3.32,8.97 3.32,7.46 C3.32,5.85 4.44,5.09 5.5,5.09 C6.73,5.09 7.28,5.84 7.45,6.52 L8.75,6.11 C8.47,4.96 7.46,3.76 5.5,3.76 C3.6,3.76 1.89,5.2 1.89,7.46 C1.89,9.72 3.54,11.15 5.52,11.15 Z M13.09,11.15 C15.08,11.15 16.1,9.83 16.37,8.74 L15.08,8.35 C14.89,9.01 14.3,9.8 13.09,9.8 C11.95,9.8 10.89,8.97 10.89,7.46 C10.89,5.85 12.01,5.09 13.07,5.09 C14.3,5.09 14.85,5.84 15.02,6.52 L16.32,6.11 C16.04,4.96 15.03,3.76 13.07,3.76 C11.17,3.76 9.46,5.2 9.46,7.46 C9.46,9.72 11.11,11.15 13.09,11.15 Z"></path>
    </g>
</symbol>
<symbol id="plyr-captions-on" width="18px" height="18px" viewBox="0 0 18 18">
    <g fill-rule="evenodd">
        <path d="M1,1 C0.4,1 0,1.4 0,2 L0,13 C0,13.6 0.4,14 1,14 L5.6,14 L8.3,16.7 C8.5,16.9 8.7,17 9,17 C9.3,17 9.5,16.9 9.7,16.7 L12.4,14 L17,14 C17.6,14 18,13.6 18,13 L18,2 C18,1.4 17.6,1 17,1 L1,1 Z M5.52,11.15 C7.51,11.15 8.53,9.83 8.8,8.74 L7.51,8.35 C7.32,9.01 6.73,9.8 5.52,9.8 C4.38,9.8 3.32,8.97 3.32,7.46 C3.32,5.85 4.44,5.09 5.5,5.09 C6.73,5.09 7.28,5.84 7.45,6.52 L8.75,6.11 C8.47,4.96 7.46,3.76 5.5,3.76 C3.6,3.76 1.89,5.2 1.89,7.46 C1.89,9.72 3.54,11.15 5.52,11.15 Z M13.09,11.15 C15.08,11.15 16.1,9.83 16.37,8.74 L15.08,8.35 C14.89,9.01 14.3,9.8 13.09,9.8 C11.95,9.8 10.89,8.97 10.89,7.46 C10.89,5.85 12.01,5.09 13.07,5.09 C14.3,5.09 14.85,5.84 15.02,6.52 L16.32,6.11 C16.04,4.96 15.03,3.76 13.07,3.76 C11.17,3.76 9.46,5.2 9.46,7.46 C9.46,9.72 11.11,11.15 13.09,11.15 Z"></path>
    </g>
</symbol>
<symbol id="plyr-download" width="18px" height="18px" viewBox="0 0 18 18">
    <g transform="translate(2 1)">
        <path d="M7,12 C7.3,12 7.5,11.9 7.7,11.7 L13.4,6 L12,4.6 L8,8.6 L8,0 L6,0 L6,8.6 L2,4.6 L0.6,6 L6.3,11.7 C6.5,11.9 6.7,12 7,12 Z" />
        <rect width="14" height="2" y="14" />
    </g>
</symbol>
<symbol id="plyr-enter-fullscreen" width="20" height="20" viewBox="0 0 25 25" fill="none" display="block"><path d="M3.852 15.703H.466v8.465H8.93v-3.386H3.85v-5.08zM.466 8.93h3.386V3.85H8.93V.465H.466v8.466zm20.316 11.85h-5.079v3.387h8.465v-8.465h-3.386v5.079zM15.703.466v3.386h5.08v5.08h3.385V.465h-8.465z" fill="#FFFFFF" fill-opacity="0.87"></path></symbol>
<symbol id="plyr-exit-fullscreen" width="20" height="20" viewBox="0 0 14 14" fill="none" display="block"><path fill-rule="evenodd" clip-rule="evenodd" d="M3 0h2v5H0V3h3V0zm2 14H3v-3H0V9h5v5zm6-3h3V9H9v5h2v-3zm3-8v2H9V0h2v3h3z" fill="#FFFFFF" fill-opacity="0.87"></path></symbol>
<symbol id="plyr-fast-forward" width="18px" height="18px" viewBox="0 0 18 18">
    <polygon points="7.875 7.17142857 0 1 0 17 7.875 10.8285714 7.875 17 18 9 7.875 1"></polygon>
</symbol>
<symbol id="plyr-logo-vimeo" width="18" height="18" viewBox="0 0 18 18">
  <path d="M16,3.3 C15.9,4.9 14.8,7 12.7,9.7 C10.5,12.5 8.7,13.9 7.2,13.9 C6.3,13.9 5.5,13 4.8,11.3 C4,8.9 3.4,4 2,4 C1.9,4 1.5,4.3 0.8,4.8 L0,3.8 C0.8,3.1 3.5,0.4 4.7,0.3 C5.9,0.2 6.7,1 7,2.8 C7.3,4.8 7.8,8.9 8.8,8.9 C9.7,8.9 11.3,5.5 11.4,4.9 C11.5,4 11.1,3 9.1,3.8 C9.9,1.2 11.4,-8.8817842e-16 13.6,-8.8817842e-16 C15.3,0.1 16.1,1.2 16,3.3 Z"
    transform="translate(1 2)" />
</symbol>
<symbol id="plyr-logo-youtube" width="18" height="18" viewBox="0 0 18 18">
  <path d="M15.8,2.8 C15.6,1.5 15,0.6 13.6,0.4 C11.4,0 8,0 8,0 C8,0 4.6,0 2.4,0.4 C1,0.6 0.3,1.5 0.2,2.8 C0,4.1 0,6 0,6 C0,6 0,7.9 0.2,9.2 C0.4,10.5 1,11.4 2.4,11.6 C4.6,12 8,12 8,12 C8,12 11.4,12 13.6,11.6 C15,11.3 15.6,10.5 15.8,9.2 C16,7.9 16,6 16,6 C16,6 16,4.1 15.8,2.8 Z M6,9 L6,3 L11,6 L6,9 Z"
    transform="translate(1 3)" />
</symbol>
<symbol id="plyr-muted" width="20" height="20" viewBox="0 0 22 22" fill="none" display="block"><path d="M16.5 11a5.491 5.491 0 00-3.056-4.92v2.702l3 3A5.54 5.54 0 0016.5 11z" fill="#FFFFFF" fill-opacity="0.87"></path><path d="M19.555 11c0 1.149-.25 2.23-.66 3.227l1.852 1.851A10.937 10.937 0 0021.999 11C22 5.77 18.34 1.393 13.444.281v2.524c3.532 1.051 6.11 4.32 6.11 8.195zM11 1.222L8.444 3.777l2.554 2.554V1.222zM1.558 0L-.001 1.558l5.775 5.775H0v7.334h4.89l6.11 6.11v-8.219l5.2 5.2a8.614 8.614 0 01-2.755 1.443v2.524a10.963 10.963 0 004.504-2.212L20.44 22l1.558-1.558-11-11L1.558 0z" fill="#FFFFFF" fill-opacity="0.87"></path></symbol>
<symbol id="plyr-pause" width="15" height="20" viewBox="0 0 15 20" fill="none"><path fill="#FFFFFF" fill-opacity="0.87" d="M0 0h5v20H0zM10 0h5v20h-5z"></path></symbol>
<symbol id="plyr-pip" width="18px" height="18px" viewBox="0 0 18 18">
    <polygon points="13.293 3.293 7.022 9.564 8.436 10.978 14.707 4.707 17 7 17 1 11 1"></polygon>
    <path d="M13,15 L3,15 L3,5 L8,5 L8,3 L2,3 C1.448,3 1,3.448 1,4 L1,16 C1,16.552 1.448,17 2,17 L14,17 C14.552,17 15,16.552 15,16 L15,10 L13,10 L13,15 L13,15 Z"></path>
</symbol>
<symbol id="plyr-play" width="20" height="20" viewBox="0 0 30 39" fill="none" display="block"><path d="M.75.25v38.03l28.523-19.015L.75.25z" fill="#FFFFFF" fill-opacity="0.87"></path></symbol>
<symbol id="plyr-restart" width="18px" height="18px" viewBox="0 0 18 18">
    <path d="M9.7,1.2 L10.4,7.6 L12.5,5.5 C14.4,7.4 14.4,10.6 12.5,12.5 C11.6,13.5 10.3,14 9,14 C7.7,14 6.4,13.5 5.5,12.5 C3.6,10.6 3.6,7.4 5.5,5.5 C6.1,4.9 6.9,4.4 7.8,4.2 L7.2,2.3 C6,2.6 4.9,3.2 4,4.1 C1.3,6.8 1.3,11.2 4,14 C5.3,15.3 7.1,16 8.9,16 C10.8,16 12.5,15.3 13.8,14 C16.5,11.3 16.5,6.9 13.8,4.1 L16,1.9 L9.7,1.2 L9.7,1.2 Z"></path>
</symbol>
<symbol id="plyr-rewind" width="18px" height="18px" viewBox="0 0 18 18">
    <polygon points="10.125 1 0 9 10.125 17 10.125 10.8285714 18 17 18 1 10.125 7.17142857"></polygon>
</symbol>
<symbol id="plyr-settings" width="20" height="20" viewBox="0 0 31 32" fill="none" display="block"><path fill-rule="evenodd" clip-rule="evenodd" d="M27.457 15.815c0 .538-.046 1.043-.108 1.55l3.283 2.607a.806.806 0 01.187 1.012l-3.113 5.47c-.186.347-.59.49-.949.347l-3.875-1.58c-.809.616-1.68 1.153-2.63 1.548l-.591 4.19a.763.763 0 01-.763.663h-6.224a.763.763 0 01-.763-.664l-.591-4.189c-.95-.395-1.821-.916-2.63-1.549l-3.875 1.581a.776.776 0 01-.95-.348L.753 20.984a.806.806 0 01.187-1.012l3.283-2.608a12.73 12.73 0 01-.109-1.549c0-.521.047-1.043.11-1.549L.94 11.658a.788.788 0 01-.187-1.012l3.112-5.469c.187-.348.592-.49.95-.348L8.69 6.41c.809-.616 1.68-1.154 2.63-1.549L11.91.672a.763.763 0 01.763-.664h6.224c.39 0 .716.285.763.664l.591 4.189c.95.395 1.821.917 2.63 1.55l3.875-1.582a.776.776 0 01.95.348l3.112 5.47a.806.806 0 01-.187 1.011l-3.283 2.608c.062.506.108 1.012.108 1.55zm-17.118 0c0 3.051 2.443 5.533 5.447 5.533 3.003 0 5.446-2.482 5.446-5.532 0-3.051-2.443-5.533-5.446-5.533-3.004 0-5.447 2.482-5.447 5.533z" fill="#FFFFFF" fill-opacity="0.87"></path></symbol>
<symbol id="plyr-volume" width="20" height="20" viewBox="0 0 23 22" fill="none" display="block"><path d="M17 11c0-2.214-1.246-4.127-3.055-5.049v10.104A5.667 5.667 0 0017 11zM.5 7.237v7.526h4.889l6.111 6.271V.966L5.389 7.237H.5z" fill="#FFFFFF" fill-opacity="0.87"></path><path d="M13.945 0v2.59c3.532 1.079 6.11 4.434 6.11 8.41s-2.578 7.331-6.11 8.41V22c4.895-1.141 8.555-5.625 8.555-11s-3.66-9.859-8.555-11z" fill="#FFFFFF" fill-opacity="0.87"></path></symbol>
</svg>
